<svg xmlns="http://www.w3.org/2000/svg" viewBox="0 0 32 32" fill="none">
  <!-- Body -->
  <ellipse cx="18" cy="23" rx="10" ry="7" fill="currentColor"/>
  <!-- Neck -->
  <path d="M13 22 C12 17 11.5 12 13 8 C13.8 5.5 16 4.5 17 6 C16 9 15.5 14 16 20 Z" fill="currentColor"/>
  <!-- Head -->
  <ellipse cx="16.5" cy="6" rx="4" ry="3.5" fill="currentColor"/>
  <!-- Ear -->
  <ellipse cx="14.2" cy="2.8" rx="1.4" ry="2.2" fill="currentColor"/>
  <!-- Snout -->
  <path d="M19.5 7 Q22 7.5 22 9.5 Q22 11 19.5 10.5 Z" fill="currentColor"/>
  <!-- Front legs -->
  <rect x="11" y="27" width="3" height="5" rx="1.2" fill="currentColor"/>
  <rect x="15.5" y="27" width="3" height="5" rx="1.2" fill="currentColor"/>
  <!-- Back legs -->
  <rect x="20" y="27" width="3" height="5" rx="1.2" fill="currentColor"/>
  <rect x="24" y="27" width="3" height="5" rx="1.2" fill="currentColor"/>
  <!-- Tail -->
  <path d="M27.5 21 Q31 18 30 22 Q29 26 26 24.5" stroke="currentColor" stroke-width="1.8" stroke-linecap="round" fill="none"/>
</svg>
